<mxfile host="app.diagrams.net" modified="2023-12-27T12:44:56.479Z" agent="Mozilla/5.0 (Macintosh; Intel Mac OS X 10_15_7) AppleWebKit/537.36 (KHTML, like Gecko) Chrome/120.0.0.0 Safari/537.36" version="22.1.12" etag="sqZgh_1uxGPadCRQqHHW" type="github">
  <diagram name="페이지-1" id="dWaUKUK14Bs6wY3yKHkB">
    <mxGraphModel>
      <root>
        <mxCell id="0" />
        <mxCell id="1" parent="0" />
      </root>
    </mxGraphModel>
  </diagram>
</mxfile>
